<svg width="70" height="1731" viewBox="0 0 70 1731" fill="none" xmlns="http://www.w3.org/2000/svg">
<path id="Arrow 3" d="M31.8879 0.000196457C14.2148 0.0621346 -0.0617416 14.4391 0.000196457 32.1121C0.0621346 49.7852 14.4391 64.0617 32.1121 63.9998C49.7852 63.9379 64.0617 49.5609 63.9998 31.8879C63.9379 14.2148 49.5609 -0.0617416 31.8879 0.000196457ZM37.7301 1667C20.0571 1667.06 5.78055 1681.44 5.84249 1699.11C5.90443 1716.79 20.2814 1731.06 37.9544 1731C55.6274 1730.94 69.904 1716.56 69.8421 1698.89C69.7802 1681.22 55.4031 1666.94 37.7301 1667ZM26 32.021L31.8423 1699.02L43.8423 1698.98L38 31.979L26 32.021Z" fill="white"/>
</svg>
