<svg width="713" height="736" viewBox="0 0 713 736" fill="none" xmlns="http://www.w3.org/2000/svg">
<path id="Arrow 5" d="M0 32C0 49.6731 14.3269 64 32 64C49.6731 64 64 49.6731 64 32C64 14.3269 49.6731 0 32 0C14.3269 0 0 14.3269 0 32ZM680.5 32H686.5V26H680.5V32ZM648.5 703.5C648.5 721.173 662.827 735.5 680.5 735.5C698.173 735.5 712.5 721.173 712.5 703.5C712.5 685.827 698.173 671.5 680.5 671.5C662.827 671.5 648.5 685.827 648.5 703.5ZM32 38H680.5V26H32V38ZM674.5 32V703.5H686.5V32H674.5Z" fill="white"/>
</svg>
